<svg xmlns="http://www.w3.org/2000/svg" xmlns:xlink="http://www.w3.org/1999/xlink" width="500" zoomAndPan="magnify" viewBox="0 0 375 374.999991" height="500" preserveAspectRatio="xMidYMid meet" version="1.0"><path fill="#ff5757" d="M 68.304688 375 L 242.410156 375 C 244.164062 375 245.914062 374.914062 247.660156 374.742188 C 249.40625 374.570312 251.140625 374.3125 252.863281 373.96875 C 254.582031 373.628906 256.28125 373.203125 257.960938 372.691406 C 259.640625 372.183594 261.289062 371.59375 262.910156 370.921875 C 264.53125 370.25 266.117188 369.5 267.664062 368.675781 C 269.210938 367.847656 270.714844 366.945312 272.171875 365.972656 C 273.632812 364.996094 275.039062 363.953125 276.394531 362.839844 C 277.753906 361.726562 279.050781 360.550781 280.292969 359.308594 C 281.53125 358.070312 282.707031 356.769531 283.820312 355.414062 C 284.933594 354.058594 285.980469 352.648438 286.953125 351.191406 C 287.929688 349.730469 288.828125 348.230469 289.65625 346.683594 C 290.484375 345.132812 291.234375 343.550781 291.902344 341.929688 C 292.574219 340.308594 293.167969 338.660156 293.675781 336.980469 C 294.183594 335.300781 294.609375 333.601562 294.953125 331.878906 C 295.296875 330.160156 295.550781 328.425781 295.722656 326.679688 C 295.894531 324.933594 295.980469 323.183594 295.980469 321.429688 L 295.980469 254.0625 L 282.589844 261.761719 C 278.414062 264.175781 273.949219 265.78125 269.195312 266.585938 L 269.195312 321.429688 C 269.195312 322.304688 269.152344 323.179688 269.066406 324.054688 C 268.980469 324.925781 268.851562 325.792969 268.683594 326.652344 C 268.511719 327.515625 268.296875 328.363281 268.042969 329.203125 C 267.789062 330.042969 267.492188 330.867188 267.15625 331.679688 C 266.820312 332.488281 266.445312 333.28125 266.035156 334.054688 C 265.621094 334.828125 265.167969 335.582031 264.683594 336.308594 C 264.195312 337.039062 263.671875 337.742188 263.117188 338.421875 C 262.558594 339.097656 261.972656 339.75 261.351562 340.367188 C 260.730469 340.988281 260.082031 341.578125 259.402344 342.132812 C 258.726562 342.691406 258.019531 343.210938 257.292969 343.699219 C 256.5625 344.1875 255.8125 344.636719 255.039062 345.050781 C 254.265625 345.464844 253.472656 345.839844 252.660156 346.175781 C 251.851562 346.511719 251.027344 346.804688 250.1875 347.0625 C 249.347656 347.316406 248.496094 347.527344 247.636719 347.699219 C 246.777344 347.871094 245.910156 348 245.035156 348.085938 C 244.164062 348.171875 243.289062 348.214844 242.410156 348.214844 L 182.144531 348.214844 L 182.144531 200.894531 L 249.105469 200.894531 L 249.105469 227.007812 C 249.109375 227.59375 249.148438 228.175781 249.222656 228.757812 C 249.300781 229.335938 249.414062 229.910156 249.566406 230.472656 C 249.71875 231.039062 249.90625 231.589844 250.132812 232.128906 C 250.355469 232.671875 250.613281 233.195312 250.90625 233.699219 C 251.199219 234.207031 251.523438 234.691406 251.878906 235.15625 C 252.238281 235.621094 252.621094 236.058594 253.035156 236.472656 C 253.449219 236.882812 253.890625 237.269531 254.351562 237.625 C 254.816406 237.980469 255.304688 238.304688 255.808594 238.597656 C 256.316406 238.890625 256.839844 239.148438 257.378906 239.371094 C 257.921875 239.59375 258.472656 239.78125 259.039062 239.933594 C 259.605469 240.085938 260.175781 240.199219 260.757812 240.273438 C 261.335938 240.351562 261.917969 240.386719 262.503906 240.386719 C 263.089844 240.386719 263.671875 240.347656 264.25 240.273438 C 264.832031 240.195312 265.402344 240.082031 265.96875 239.929688 C 266.53125 239.78125 267.085938 239.59375 267.625 239.367188 C 268.167969 239.144531 268.691406 238.886719 269.195312 238.59375 L 340.042969 197.679688 C 340.550781 197.386719 341.035156 197.0625 341.496094 196.703125 C 341.960938 196.347656 342.398438 195.964844 342.808594 195.550781 C 343.222656 195.136719 343.605469 194.695312 343.960938 194.234375 C 344.316406 193.769531 344.636719 193.285156 344.929688 192.777344 C 345.222656 192.273438 345.480469 191.75 345.703125 191.210938 C 345.925781 190.667969 346.113281 190.117188 346.261719 189.554688 C 346.414062 188.988281 346.527344 188.417969 346.601562 187.839844 C 346.679688 187.257812 346.71875 186.679688 346.71875 186.09375 C 346.71875 185.507812 346.679688 184.929688 346.601562 184.347656 C 346.527344 183.769531 346.414062 183.199219 346.261719 182.632812 C 346.113281 182.070312 345.925781 181.519531 345.703125 180.976562 C 345.480469 180.4375 345.222656 179.914062 344.929688 179.410156 C 344.636719 178.902344 344.316406 178.417969 343.960938 177.953125 C 343.605469 177.492188 343.222656 177.050781 342.808594 176.636719 C 342.398438 176.222656 341.960938 175.839844 341.496094 175.484375 C 341.035156 175.125 340.550781 174.800781 340.042969 174.507812 L 269.195312 133.929688 C 268.691406 133.636719 268.167969 133.378906 267.625 133.152344 C 267.085938 132.929688 266.53125 132.742188 265.96875 132.589844 C 265.402344 132.441406 264.832031 132.324219 264.25 132.25 C 263.671875 132.171875 263.089844 132.132812 262.503906 132.132812 C 261.917969 132.132812 261.335938 132.171875 260.757812 132.25 C 260.175781 132.324219 259.605469 132.4375 259.039062 132.589844 C 258.472656 132.742188 257.921875 132.929688 257.378906 133.152344 C 256.839844 133.375 256.316406 133.632812 255.808594 133.925781 C 255.304688 134.21875 254.816406 134.542969 254.351562 134.898438 C 253.890625 135.253906 253.449219 135.636719 253.035156 136.050781 C 252.621094 136.464844 252.238281 136.902344 251.878906 137.367188 C 251.523438 137.832031 251.199219 138.316406 250.90625 138.820312 C 250.613281 139.328125 250.355469 139.851562 250.132812 140.390625 C 249.90625 140.933594 249.71875 141.484375 249.566406 142.050781 C 249.414062 142.613281 249.300781 143.1875 249.222656 143.765625 C 249.148438 144.347656 249.109375 144.929688 249.105469 145.511719 L 249.105469 174.105469 L 182.144531 174.105469 L 182.144531 90.535156 C 182.144531 89.277344 182.058594 88.027344 181.882812 86.78125 C 181.707031 85.539062 181.445312 84.3125 181.097656 83.105469 C 180.75 81.894531 180.320312 80.71875 179.804688 79.570312 C 179.292969 78.425781 178.703125 77.316406 178.03125 76.253906 C 177.363281 75.191406 176.621094 74.179688 175.8125 73.21875 C 175 72.257812 174.125 71.359375 173.1875 70.523438 C 172.25 69.6875 171.257812 68.917969 170.210938 68.222656 C 169.164062 67.527344 168.074219 66.90625 166.941406 66.363281 L 88.394531 28.660156 C 86.757812 27.929688 85.082031 27.304688 83.371094 26.785156 L 242.410156 26.785156 C 243.289062 26.785156 244.164062 26.828125 245.035156 26.914062 C 245.910156 27 246.777344 27.128906 247.636719 27.300781 C 248.496094 27.472656 249.347656 27.683594 250.1875 27.9375 C 251.027344 28.195312 251.851562 28.488281 252.660156 28.824219 C 253.472656 29.160156 254.265625 29.535156 255.039062 29.949219 C 255.8125 30.363281 256.5625 30.8125 257.292969 31.300781 C 258.019531 31.789062 258.726562 32.308594 259.402344 32.867188 C 260.082031 33.421875 260.730469 34.011719 261.351562 34.632812 C 261.972656 35.25 262.558594 35.902344 263.117188 36.578125 C 263.671875 37.257812 264.195312 37.960938 264.683594 38.691406 C 265.167969 39.417969 265.621094 40.171875 266.035156 40.945312 C 266.445312 41.71875 266.820312 42.511719 267.15625 43.320312 C 267.492188 44.132812 267.789062 44.957031 268.042969 45.796875 C 268.296875 46.636719 268.511719 47.484375 268.683594 48.347656 C 268.851562 49.207031 268.980469 50.074219 269.066406 50.945312 C 269.152344 51.820312 269.195312 52.695312 269.195312 53.570312 L 269.195312 105.601562 C 273.949219 106.40625 278.414062 108.011719 282.589844 110.425781 L 295.980469 118.125 L 295.980469 53.570312 C 295.980469 51.816406 295.894531 50.066406 295.722656 48.320312 C 295.550781 46.574219 295.296875 44.839844 294.953125 43.121094 C 294.609375 41.398438 294.183594 39.699219 293.675781 38.019531 C 293.167969 36.339844 292.574219 34.691406 291.902344 33.070312 C 291.234375 31.449219 290.484375 29.867188 289.65625 28.316406 C 288.828125 26.769531 287.929688 25.265625 286.953125 23.808594 C 285.980469 22.351562 284.933594 20.941406 283.820312 19.585938 C 282.707031 18.230469 281.53125 16.929688 280.292969 15.691406 C 279.050781 14.449219 277.753906 13.273438 276.394531 12.160156 C 275.039062 11.046875 273.632812 10.003906 272.171875 9.027344 C 270.714844 8.054688 269.210938 7.152344 267.664062 6.324219 C 266.117188 5.5 264.53125 4.75 262.910156 4.078125 C 261.289062 3.40625 259.640625 2.816406 257.960938 2.308594 C 256.28125 1.796875 254.582031 1.371094 252.863281 1.03125 C 251.140625 0.6875 249.40625 0.429688 247.660156 0.257812 C 245.914062 0.0859375 244.164062 0 242.410156 0 L 81.695312 0 C 79.941406 0 78.191406 0.0859375 76.445312 0.257812 C 74.699219 0.429688 72.964844 0.6875 71.246094 1.03125 C 69.523438 1.371094 67.824219 1.796875 66.144531 2.308594 C 64.464844 2.816406 62.816406 3.40625 61.195312 4.078125 C 59.574219 4.75 57.992188 5.5 56.441406 6.324219 C 54.894531 7.152344 53.394531 8.054688 51.933594 9.027344 C 50.476562 10.003906 49.066406 11.046875 47.710938 12.160156 C 46.355469 13.273438 45.054688 14.449219 43.816406 15.691406 C 42.574219 16.929688 41.398438 18.230469 40.285156 19.585938 C 39.171875 20.941406 38.128906 22.351562 37.152344 23.808594 C 36.179688 25.265625 35.277344 26.769531 34.449219 28.316406 C 33.625 29.867188 32.875 31.449219 32.203125 33.070312 C 31.53125 34.691406 30.941406 36.339844 30.433594 38.019531 C 29.921875 39.699219 29.496094 41.398438 29.15625 43.121094 C 28.8125 44.839844 28.554688 46.574219 28.382812 48.320312 C 28.210938 50.066406 28.125 51.816406 28.125 53.570312 L 28.125 334.820312 C 28.125 336.136719 28.191406 337.449219 28.320312 338.757812 C 28.449219 340.070312 28.640625 341.371094 28.898438 342.660156 C 29.152344 343.949219 29.472656 345.226562 29.855469 346.484375 C 30.238281 347.742188 30.679688 348.980469 31.183594 350.195312 C 31.6875 351.414062 32.25 352.601562 32.871094 353.761719 C 33.488281 354.921875 34.164062 356.050781 34.894531 357.144531 C 35.628906 358.238281 36.410156 359.292969 37.246094 360.308594 C 38.078125 361.328125 38.960938 362.300781 39.894531 363.230469 C 40.824219 364.164062 41.796875 365.046875 42.816406 365.878906 C 43.832031 366.714844 44.886719 367.496094 45.980469 368.230469 C 47.074219 368.960938 48.203125 369.636719 49.363281 370.253906 C 50.523438 370.875 51.710938 371.4375 52.929688 371.941406 C 54.144531 372.445312 55.382812 372.886719 56.640625 373.269531 C 57.898438 373.652344 59.175781 373.972656 60.464844 374.226562 C 61.753906 374.484375 63.054688 374.675781 64.367188 374.804688 C 65.675781 374.933594 66.988281 375 68.304688 375 Z M 68.304688 375 " fill-opacity="1" fill-rule="nonzero"/></svg>